<svg width="1211" height="307" viewBox="0 0 1211 307" fill="none" xmlns="http://www.w3.org/2000/svg">
<path d="M94.7654 46.6839H59.132C55.9562 46.6839 52.9105 47.9457 50.6648 50.1918C48.4192 52.438 47.1576 55.4842 47.1576 58.6607V129.945C47.1576 131.518 47.4673 133.075 48.0691 134.528C48.6708 135.982 49.5529 137.301 50.6648 138.414C51.7767 139.526 53.0968 140.409 54.5496 141.01C56.0024 141.612 57.5595 141.922 59.1319 141.922H94.7654C107.392 141.922 119.501 136.905 128.429 127.975C137.357 119.044 142.373 106.932 142.373 94.303C142.373 81.6736 137.357 69.5612 128.429 60.6309C119.501 51.7006 107.392 46.6839 94.7654 46.6839Z" fill="#F4C345"/>
<path d="M126.504 70.494H90.8707C89.2982 70.494 87.7411 70.8037 86.2883 71.4057C84.8355 72.0076 83.5155 72.8897 82.4035 74.0019C81.2916 75.1141 80.4096 76.4345 79.8078 77.8877C79.206 79.3408 78.8963 80.8985 78.8963 82.4714V153.755C78.8963 156.931 80.1579 159.978 82.4035 162.224C84.6491 164.47 87.6949 165.732 90.8707 165.732H126.504C132.756 165.732 138.947 164.501 144.723 162.108C150.499 159.715 155.747 156.207 160.168 151.785C164.589 147.363 168.095 142.113 170.488 136.336C172.881 130.559 174.112 124.367 174.112 118.113C174.112 105.484 169.096 93.3718 160.168 84.4415C151.24 75.5112 139.131 70.494 126.504 70.494Z" fill="#FF7E69"/>
<path d="M158.243 94.3041H122.609C121.037 94.3041 119.48 94.6138 118.027 95.2157C116.574 95.8177 115.254 96.6998 114.142 97.812C113.03 98.9242 112.148 100.245 111.547 101.698C110.945 103.151 110.635 104.708 110.635 106.281V177.565C110.635 180.741 111.897 183.788 114.142 186.034C116.388 188.281 119.434 189.542 122.609 189.542H158.243C170.869 189.542 182.978 184.525 191.907 175.595C200.835 166.664 205.851 154.553 205.851 141.923C205.851 129.294 200.835 117.181 191.907 108.251C182.978 99.3207 170.869 94.3041 158.243 94.3041Z" fill="#391145"/>
<path d="M189.981 118.113H154.348C151.172 118.113 148.126 119.375 145.88 121.621C143.635 123.867 142.373 126.914 142.373 130.09V201.374C142.373 204.55 143.635 207.597 145.88 209.843C148.126 212.09 151.172 213.351 154.347 213.351H189.981C202.607 213.351 214.717 208.334 223.645 199.404C232.573 190.473 237.589 178.362 237.589 165.732C237.589 153.103 232.573 140.991 223.645 132.061C214.717 123.13 202.607 118.113 189.981 118.113Z" fill="#52A8CE"/>
<path d="M192.591 258.629L209.264 242.509C210.712 241.11 212.462 240.064 214.379 239.449C216.295 238.835 218.328 238.67 220.318 238.966L242.866 242.311C243.594 242.422 244.339 242.315 245.006 242.003C245.673 241.691 246.234 241.189 246.616 240.56C246.998 239.93 247.186 239.201 247.154 238.465C247.123 237.729 246.875 237.018 246.44 236.423L193.007 163.533C192.541 162.897 191.887 162.424 191.136 162.182C190.386 161.94 189.579 161.941 188.829 162.185C188.08 162.428 187.426 162.902 186.961 163.539C186.497 164.176 186.245 164.943 186.241 165.732V255.953C186.244 256.688 186.463 257.405 186.87 258.016C187.278 258.627 187.856 259.105 188.532 259.39C189.209 259.675 189.955 259.755 190.676 259.62C191.398 259.485 192.064 259.14 192.591 258.629Z" fill="#391145"/>
<path d="M359.341 177.81L361.541 190.836H381.6V91.5291H358.435V126.738C354.682 119.129 347.564 114.615 336.694 114.615C325.305 114.615 315.988 119.774 310.941 130.607C308.352 136.153 307.058 142.86 307.058 151.372V153.564C307.058 179.358 318.317 192.255 336.564 192.255C348.212 192.255 355.588 186.58 359.341 177.81ZM344.329 172.265C336.305 172.265 330.741 166.977 330.741 153.435V151.758C330.741 140.022 335.917 133.96 344.717 133.96C353.258 133.96 358.694 140.409 358.694 151.758V153.435C358.694 166.074 353 172.265 344.329 172.265Z" fill="#391145"/>
<path d="M467.189 167.106H442.213C440.531 171.361 436.778 174.198 430.178 174.198C420.989 174.198 415.942 169.555 414.777 160.27H467.707V151.887C467.707 138.216 462.66 126.609 451.531 119.644C445.966 116.162 438.719 114.485 429.919 114.485C414.26 114.485 402.613 120.805 396.142 132.412C392.906 138.087 391.354 144.922 391.354 153.047V155.24C391.354 178.454 403.389 192.77 429.53 192.77C451.531 192.77 463.048 182.84 467.189 167.106ZM430.178 132.283C438.978 132.283 443.378 137.055 444.413 145.567H414.777C416.33 136.539 421.507 132.283 430.178 132.283H430.178Z" fill="#391145"/>
<path d="M509.823 192.899C525.482 192.899 535.576 187.999 540.752 180.261C543.252 176.237 544.554 171.584 544.505 166.848C544.505 158.078 540.752 152.919 535.187 149.824C529.493 146.728 522.635 145.439 516.035 144.536C504.905 143.117 498.564 142.344 498.564 137.7C498.564 134.089 501.152 131.381 508.399 131.381C515.388 131.381 519.399 133.96 520.435 139.377H543.6C541.399 124.288 531.435 114.357 508.658 114.357C487.305 114.357 475.917 124.417 475.917 139.119C475.917 148.147 479.54 153.306 485.234 156.272C490.799 159.367 497.658 160.528 504.129 161.431C510.34 162.076 516.035 162.85 519.141 164.526C519.885 164.859 520.515 165.404 520.952 166.092C521.389 166.78 521.614 167.581 521.599 168.396C521.599 172.523 518.493 174.973 510.987 174.973C503.223 174.973 498.693 171.878 497.14 165.816H472.811C475.269 183.098 487.305 192.899 509.823 192.899Z" fill="#391145"/>
<path d="M565.61 111.778C575.316 111.778 579.716 108.682 579.716 100.17C579.716 91.4 574.928 88.4339 565.61 88.4339C556.033 88.4339 551.504 91.4 551.504 100.17C551.504 108.94 555.257 111.778 565.61 111.778Z" fill="#391145"/>
<path d="M621.652 222.434H622.69C651.158 222.434 663.194 212.116 663.194 195.737C663.194 181.679 653.747 173.296 632.653 173.296H616.606C608.453 173.296 606.124 172.394 606.124 169.814C606.124 167.88 607.031 166.848 611.043 166.203C612.984 166.074 615.83 165.816 619.582 165.816H623.982C646.502 165.816 659.313 157.046 659.313 140.151V139.635C659.313 128.286 652.453 120.676 639.642 118.097C650.514 118.097 656.208 116.678 658.407 112.422C659.745 109.516 660.367 106.332 660.22 103.137V100.944H634.854V103.524C634.854 109.714 634.207 112.81 631.102 113.97C628.68 114.767 626.144 115.159 623.594 115.131L621.652 115.26C602.112 115.905 589.43 124.03 589.43 139.893V140.022C589.43 150.598 594.348 157.175 603.666 160.657C593.312 162.85 587.489 168.525 587.489 177.295C587.489 185.42 592.795 190.449 602.372 191.997C591.242 194.06 586.195 198.962 586.195 206.442C586.195 213.148 589.689 217.92 599.914 220.499C605.089 221.918 612.337 222.434 621.652 222.434ZM624.241 150.34C617.253 150.34 612.853 147.373 612.853 140.796V140.28C612.853 133.187 617.772 129.962 624.373 129.962C630.971 129.962 635.761 132.542 635.761 140.151V140.667C635.761 147.244 631.358 150.34 624.241 150.34ZM624.629 205.926H621.396C611.171 205.926 607.547 202.959 607.547 199.477V199.348C607.547 195.35 612.206 192.9 619.97 192.513H631.49C640.161 192.513 642.878 194.706 642.878 198.188C642.878 202.702 637.831 205.926 624.629 205.926Z" fill="#391145"/>
<path d="M692.891 190.836V151.758C692.891 141.44 696.127 134.734 705.186 134.734C713.857 134.734 716.187 140.666 716.187 149.952V190.836H739.999V143.246C739.999 125.061 731.328 114.485 714.504 114.485C702.857 114.485 695.221 120.031 691.209 128.672L689.01 116.033H668.951V190.836H692.891Z" fill="#391145"/>
<path d="M783.562 192.899C799.219 192.899 809.313 187.999 814.491 180.261C816.991 176.236 818.292 171.584 818.243 166.848C818.243 158.078 814.491 152.919 808.925 149.824C803.231 146.728 796.374 145.439 789.773 144.536C778.644 143.117 772.302 142.344 772.302 137.7C772.302 134.089 774.891 131.381 782.137 131.381C789.125 131.381 793.137 133.96 794.172 139.377H817.337C815.138 124.288 805.173 114.357 782.396 114.357C761.042 114.357 749.654 124.417 749.654 139.119C749.654 148.147 753.278 153.306 758.972 156.272C764.538 159.367 771.395 160.528 777.868 161.431C784.078 162.076 789.773 162.85 792.878 164.526C793.622 164.859 794.252 165.403 794.69 166.091C795.127 166.779 795.353 167.581 795.338 168.396C795.338 172.523 792.23 174.973 784.726 174.973C776.961 174.973 772.431 171.878 770.879 165.816H746.549C749.009 183.098 761.042 192.899 783.562 192.899Z" fill="#391145"/>
<path d="M874.413 190.836V169.04H869.625C862.118 169.04 858.884 168.266 857.458 164.268C856.789 161.133 856.486 157.93 856.555 154.724V136.798H874.413V116.033H856.555V97.3329H837.142C837.011 100.428 836.755 104.426 836.367 107.521C835.72 113.97 833.906 115.905 828.99 116.549C826.568 117.082 824.094 117.342 821.614 117.323V136.798H834.294V159.368C834.294 174.973 836.883 183.743 845.035 187.87C849.178 189.805 854.872 190.836 862.508 190.836H874.413Z" fill="#391145"/>
<path d="M884.301 190.836H908.372V157.69C908.372 148.663 909.926 143.633 914.842 141.44C918.216 140.11 921.83 139.495 925.455 139.635H934.254V115.001H929.983C916.396 115.001 908.888 119.644 906.43 131.381L903.194 116.033H884.301V190.836Z" fill="#391145"/>
<path d="M1026.52 192.254C1037.91 192.254 1047.1 187.096 1052.15 176.262C1054.74 170.716 1056.03 164.01 1056.03 155.498V153.305C1056.03 127.511 1044.9 114.485 1026.4 114.485C1015.01 114.485 1007.5 120.16 1003.75 128.93L1001.55 116.033H981.489V216.372H1004.65V180.002C1008.41 187.74 1015.39 192.254 1026.52 192.254ZM1018.5 172.651C1009.96 172.651 1004.39 166.46 1004.39 154.853V153.176C1004.39 140.537 1010.09 134.347 1018.63 134.347C1026.78 134.347 1032.74 140.021 1032.74 153.305V155.111C1032.74 166.847 1027.17 172.651 1018.5 172.651Z" fill="#391145"/>
<path d="M1140.54 167.106H1115.56C1113.88 171.361 1110.13 174.198 1103.53 174.198C1094.34 174.198 1089.29 169.555 1088.13 160.27H1141.06V151.887C1141.06 138.216 1136.01 126.609 1124.88 119.644C1119.32 116.162 1112.07 114.485 1103.27 114.485C1087.61 114.485 1075.96 120.805 1069.49 132.412C1066.26 138.087 1064.7 144.922 1064.7 153.047V155.24C1064.7 178.454 1076.74 192.77 1102.88 192.77C1124.88 192.77 1136.4 182.84 1140.54 167.106ZM1103.53 132.283C1112.33 132.283 1116.73 137.055 1117.76 145.567H1088.13C1089.68 136.539 1094.86 132.283 1103.53 132.283Z" fill="#391145"/>
<path d="M956.377 111.778C966.083 111.778 970.483 108.682 970.483 100.17C970.483 91.4 965.695 88.4339 956.377 88.4339C946.8 88.4339 942.271 91.4 942.271 100.17C942.271 108.94 946.024 111.778 956.377 111.778Z" fill="#391145"/>
<path d="M944.083 116.625V190.836H968.542V116.625C960.47 118.248 952.155 118.248 944.083 116.625Z" fill="#391145"/>
<path d="M553.316 116.625V190.836H577.775V116.625C569.703 118.248 561.388 118.248 553.316 116.625Z" fill="#391145"/>
</svg>
